Coordinates
version=1
nRows=5
nColumns=63
inDegrees=yes

Units are S.I. units (second, meters, Newtons, ...)
If the header above contains a line with 'inDegrees', this indicates whether rotational values are in degrees (yes) or radians (no).

endheader
time	pelvis_tilt	pelvis_list	pelvis_rotation	pelvis_tx	pelvis_ty	pelvis_tz	hip_flexion_r	hip_adduction_r	hip_rotation_r	knee_angle_r	knee_angle_r_beta	ankle_angle_r	subtalar_angle_r	mtp_angle_r	hip_flexion_l	hip_adduction_l	hip_rotation_l	knee_angle_l	knee_angle_l_beta	ankle_angle_l	subtalar_angle_l	mtp_angle_l	L5_S1_Flex_Ext	L5_S1_Lat_Bending	L5_S1_axial_rotation	L4_L5_Flex_Ext	L4_L5_Lat_Bending	L4_L5_axial_rotation	L3_L4_Flex_Ext	L3_L4_Lat_Bending	L3_L4_axial_rotation	L2_L3_Flex_Ext	L2_L3_Lat_Bending	L2_L3_axial_rotation	L1_L2_Flex_Ext	L1_L2_Lat_Bending	L1_L2_axial_rotation	L1_T12_Flex_Ext	L1_T12_Lat_Bending	L1_T12_axial_rotation	Abs_r3	Abs_r2	Abs_r1	Abs_t1	Abs_t2	neck_flexion	neck_bending	neck_rotation	arm_flex_r	arm_add_r	arm_rot_r	elbow_flex_r	pro_sup_r	wrist_flex_r	wrist_dev_r	arm_flex_l	arm_add_l	arm_rot_l	elbow_flex_l	pro_sup_l	wrist_flex_l	wrist_dev_l
      0.00800000	    -52.26318556	     -5.42862390	      4.05836523	     -0.37101355	      1.12365327	      0.03703959	     90.41979975	     -8.96695228	     -9.88583282	     51.65567233	      0.90156156	      6.89197522	      7.86654109	      0.00000000	    109.62194096	     -1.82193184	      6.74657869	    110.23839034	      1.92402287	     23.83727635	      5.01838387	      0.00000000	     -0.07488374	      0.41751911	     -0.19274538	     -0.13906658	      0.55530042	     -0.20479197	     -0.12302649	      1.01515597	     -0.20479197	     -0.08558462	      1.01515597	     -0.16865221	     -0.06953704	      0.85140497	     -0.15660562	     -0.04278857	      0.64673711	     -0.14455904	     -0.53488703	      4.72305970	     -1.07199200	      0.00000000	      0.00000000	     -0.00000000	      0.00000000	      0.00000000	     75.44940631	    -15.48300063	     18.80451429	     29.88136347	     39.44751776	      0.00000000	      5.83151208	     76.41341422	     -6.50832533	     20.99614919	     28.77877085	     52.75661362	      0.00000000	      5.83151208
      0.01700000	    -52.21647407	     -5.28564713	      4.12864906	     -0.37057204	      1.12342617	      0.03563497	     88.07172547	     -8.62415214	    -10.04365040	     49.09975854	      0.85695245	      5.53418927	      8.07867006	      0.00000000	    112.16747141	     -1.12520509	      7.14213478	    112.74067034	      1.96769590	     23.08314740	      6.47421637	      0.00000000	     -0.07674277	      0.40673668	     -0.26603887	     -0.14251899	      0.54095978	     -0.28266629	     -0.12608069	      0.98893955	     -0.28266629	     -0.08770931	      0.98893955	     -0.23278401	     -0.07126333	      0.82941743	     -0.21615658	     -0.04385082	      0.63003511	     -0.19952915	     -0.54816591	      4.60108662	     -1.47962836	      0.00000000	      0.00000000	     -0.00000000	      0.00000000	      0.00000000	     75.31776602	    -15.50171929	     18.97678009	     29.89048753	     39.46434074	      0.00000000	      5.81004402	     76.22444517	     -6.87439772	     21.09301480	     29.18163951	     52.78962638	      0.00000000	      5.81004402
      0.02500000	    -52.19585450	     -5.18780645	      4.17989915	     -0.37042097	      1.12311346	      0.03545618	     87.55324983	     -8.64321872	    -10.11127208	     48.89700147	      0.85341367	      5.35899900	      8.02629322	      0.00000000	    112.85396838	     -1.00391676	      7.04122295	    113.15150707	      1.97486635	     23.28880192	      6.55514157	      0.00000000	     -0.07404144	      0.39369858	     -0.28815505	     -0.13750235	      0.52361911	     -0.30616474	     -0.12164267	      0.95723873	     -0.30616474	     -0.08462196	      0.95723873	     -0.25213567	     -0.06875488	      0.80283015	     -0.23412598	     -0.04230728	      0.60983910	     -0.21611629	     -0.52887057	      4.45359708	     -1.60263195	      0.00000000	      0.00000000	     -0.00000000	      0.00000000	      0.00000000	     75.23127720	    -15.49072788	     19.02435157	     29.91952542	     39.47390054	      0.00000000	      5.80583669	     76.18736267	     -6.93065699	     21.10591199	     29.22273300	     52.78854573	      0.00000000	      5.80583669
      0.03300000	    -52.17629733	     -5.30036618	      4.11704978	     -0.37030202	      1.12307298	      0.03532929	     86.79996639	     -8.54772666	    -10.62944599	     48.36763272	      0.84417444	      4.91130808	      7.83968509	      0.00000000	    113.66598633	     -0.92193132	      7.26234567	    113.47181226	      1.98045673	     23.55028543	      7.28363502	      0.00000000	     -0.07560183	      0.40939984	     -0.29444606	     -0.14040015	      0.54450179	     -0.31284894	     -0.12420624	      0.99541477	     -0.31284894	     -0.08640533	      0.99541477	     -0.25764030	     -0.07020386	      0.83484815	     -0.23923742	     -0.04319888	      0.63416035	     -0.22083455	     -0.54001629	      4.63121286	     -1.63762066	      0.00000000	      0.00000000	     -0.00000000	      0.00000000	      0.00000000	     75.20623147	    -15.49243600	     19.19041172	     30.06020250	     39.48634179	      0.00000000	      5.79303987	     76.10306275	     -7.06983482	     21.25978738	     29.47113584	     52.83405872	      0.00000000	      5.79303987
      0.04200000	    -52.13669910	     -5.49244340	      4.04145963	     -0.37011575	      1.12276939	      0.03518268	     86.12341433	     -8.43881615	    -11.17660536	     48.23455866	      0.84185186	      4.39074524	      7.35470836	      0.00000000	    114.55432478	     -0.82605168	      7.62451527	    113.80741820	      1.98631416	     24.13966350	      8.33039486	      0.00000000	     -0.07486483	      0.43457033	     -0.28896044	     -0.13903147	      0.57797854	     -0.30702047	     -0.12299543	      1.05661430	     -0.30702047	     -0.08556301	      1.05661430	     -0.25284038	     -0.06951948	      0.88617582	     -0.23478036	     -0.04277776	      0.67314944	     -0.21672033	     -0.53475199	      4.91594649	     -1.60711127	      0.00000000	      0.00000000	     -0.00000000	      0.00000000	      0.00000000	     75.18580017	    -15.57319823	     19.46510254	     30.15835351	     39.49408445	      0.00000000	      5.77041579	     75.99925014	     -7.17648059	     21.57516319	     29.73922041	     52.93437673	      0.00000000	      5.77041579
